<svg id="ae5f5559-570c-4c14-9324-22f1786600a2" xmlns="http://www.w3.org/2000/svg" viewBox="0 0 908.77 515.65"><defs><style>.cls-1{fill:#fff;}.cls-2{fill:#d0cde1;}.cls-3{fill:#3f3d56;}.cls-4{fill:#ffb8b8;}.cls-5{fill:#2f2e41;}.cls-6{fill:#575a89;}.cls-7{opacity:0.2;isolation:isolate;}.cls-8{fill:#f2f2f2;}.cls-9{fill:#339989;}.cls-10{fill:#53c1de;}</style></defs><title>undraw_static_website_0107</title><ellipse class="cls-1" cx="506.87" cy="262.57" rx="478.24" ry="210.15" transform="translate(-112.15 187.85) rotate(-20.34)"/><ellipse class="cls-2" cx="292.63" cy="442.67" rx="259.81" ry="9.61"/><path class="cls-3" d="M729,60.85l58.32-.77.32,24.39-33.93.45.32,24.39,33.94-.45.32,24.38-58.32.78Zm70-.93,58.33-.77.28,21.21-33.93.45,0,4.24,33.94-.45.64,48.78-58.32.77-.3-22.27,33.94-.45-.06-4.24-33.93.45L799,59.92Zm62.94,0,58.33-.77.28,21.21-33.93.45,0,4.24,33.93-.45.65,48.78-58.32.77-.3-22.27,33.94-.45-.06-4.24-33.93.45-.63-47.72Z" transform="translate(-52.48 -4.75)"/><polygon class="cls-4" points="172.31 385.02 170.33 407.4 186.13 406.09 186.13 387 172.31 385.02"/><polygon class="cls-4" points="157.82 385.02 159.8 407.4 144 406.09 144 387 157.82 385.02"/><path class="cls-5" d="M251.78,218s5.26,31.6,5.26,36.21-2,34.23-5.26,40.16-3.95,8.56-2.63,11.19.65,2,0,3.95-2,1.31,0,4a6.92,6.92,0,0,1,0,7.9c-1.32,2,2.63,55.3-2.64,59.24s-6.58,17.12-6.58,17.12l-17.12-2V381.21s-3.95-10.53-1.31-17.11,3.95-41.48,3.95-41.48-.66-3.29,0-5.26,0-3.29-1.32-3.95-2-3.29-2-3.29l-2-48.06-7.9,47.4s7.9,64.51,0,73.07v15.14H195.16l2.64-16.46s-5.27-15.14-2.64-18.43-7.9-56-6.58-57.93.66-2.63,0-4-2.63-2.63-2-3.95,0-3.95,0-3.95S174.1,231.12,180,225.2,251.78,218,251.78,218Z" transform="translate(-52.48 -4.75)"/><path class="cls-5" d="M226.76,403.6s1.32-6.32,11.85-4.15c0,0,2.64,5.46,2.64,8.1s2.63,20.4,2.63,20.4,10.53,17.78-2.63,17.78-17.78-4.61-18.44-9.22.66-5.92-2-7.9-4-2-3.29-4.61,2-15.8,2-15.8.66-9.87,4.28-7.24l3.62,2.64" transform="translate(-52.48 -4.75)"/><path class="cls-5" d="M208.33,403.6s-1.32-6.32-11.85-4.15c0,0-2.63,5.46-2.63,8.1s-2.64,20.4-2.64,20.4-10.53,17.78,2.64,17.78,17.77-4.61,18.43-9.22-.66-5.92,2-7.9,3.95-2,3.3-4.61-2-15.8-2-15.8-.66-9.87-4.28-7.24l-3.62,2.64" transform="translate(-52.48 -4.75)"/><circle class="cls-4" cx="174.94" cy="74.3" r="17.77"/><path class="cls-4" d="M212.94,81.69s-7.24,28.3-8.56,29,30.28,3.29,30.28,3.29-7.9-24.35,0-28.3Z" transform="translate(-52.48 -4.75)"/><path class="cls-2" d="M208.31,98.94h0l-21.7,15,3.95,117.84s29-3.29,35.54-2.63,27.65-5.93,27.65-5.93l-9.22-110.73a9.09,9.09,0,0,0-8.43-8.31l-3.95-.28s-4,9.78-15.83,4.73A13.88,13.88,0,0,1,208.31,98.94Z" transform="translate(-52.48 -4.75)"/><path class="cls-6" d="M208.84,97.86,182,110.65l-5.27,75.71s-10.53,45.42-2,58.58,23,14.49,23,14.49,19.09-75.71,13.82-101.38S208.84,97.86,208.84,97.86Z" transform="translate(-52.48 -4.75)"/><path class="cls-4" d="M158.3,212v9.87s-4,21.73,8.56,21.07,6.58-23.7,6.58-23.7L169.49,212Z" transform="translate(-52.48 -4.75)"/><path class="cls-4" d="M274.16,231.78,272.84,243s6.59,22.38-5.92,23-3.43-22.9-3.43-22.9l4.09-12.65Z" transform="translate(-52.48 -4.75)"/><path class="cls-6" d="M231.75,101.6h0a77.45,77.45,0,0,1,32.42,16.85l.12.1-9.22,48.71L253.75,185s24.36,86.89-3.95,74.39c0,0-24.35-75.71-21.06-110.6S231.75,101.6,231.75,101.6Z" transform="translate(-52.48 -4.75)"/><path class="cls-6" d="M255.73,117.89c.66-.66,8.56.92,8.56.92s14.48,51.09,14.48,59.65,2,57.27,2,57.27l-17.37,1.75L249.3,169.8Z" transform="translate(-52.48 -4.75)"/><path class="cls-6" d="M186.61,110.65H182s-13.17,5.27-13.83,11.19-18.43,65.83-18.43,65.83L154.35,218l17.12-2.63,3.29-33.57,17.11-36.87Z" transform="translate(-52.48 -4.75)"/><path class="cls-5" d="M224,84l.68-4.75c.16-1.1.81-2.56,1.88-2.26.92.26,2.92,1,3.25.8,1.25-.88,3.15.67,4.46-.12.55-.33.91-1,1.55-1.08a1.74,1.74,0,0,1,1.14.51,7.66,7.66,0,0,0,2.95,1.6,3.17,3.17,0,0,0,3.11-.84,1.64,1.64,0,0,1,.55-.53,1.26,1.26,0,0,1,.79,0l3.36.91A12.92,12.92,0,0,0,246,67.65a21.22,21.22,0,0,0-4.9-4.79q-3.12-2.38-6.44-4.47A20.75,20.75,0,0,0,226.78,55c-2.83-.43-6,.34-7.79,2.58a5,5,0,0,1-1.81-2.43,1.85,1.85,0,0,0-.12,2.61,1.7,1.7,0,0,0,.24.22l-2.84-1.82c-.8.84.76,2.36.08,3.3a1.72,1.72,0,0,1-.77.5,12.92,12.92,0,0,0-4.17,2.63,15.53,15.53,0,0,0-3.28,6.05c-1.7,4.86-2.93,10.44-.52,15,.27.51,3.87,9,4.35,9.36,1.63,1.12.57-1.59,1.73,0,.92,1.25.75-3.53,2.1-2.48a3.39,3.39,0,0,0,3.68.16c.56-.39.38-2.55.08-4.54a2.34,2.34,0,0,1,1.95-2.67,2.42,2.42,0,0,1,.89,0C222.27,83.88,223.94,84.21,224,84Z" transform="translate(-52.48 -4.75)"/><polygon class="cls-7" points="204.89 172.72 212.13 232.63 207.53 232.63 204.89 172.72"/><polygon class="cls-7" points="128.53 149.68 124.87 172.72 131.82 149.68 129.85 149.68 128.53 149.68"/><circle class="cls-8" cx="412.3" cy="246.02" r="42.03"/><path class="cls-3" d="M805.51,208.08H570V158.79H805.51ZM571,207H804.47V159.83H571Z" transform="translate(-52.48 -4.75)"/><rect class="cls-9" x="501.42" y="163.9" width="234.49" height="48.25"/><circle class="cls-9" cx="353.2" cy="114.23" r="3.63"/><circle class="cls-9" cx="365.65" cy="114.23" r="3.63"/><circle class="cls-9" cx="378.1" cy="114.23" r="3.63"/><path class="cls-3" d="M832.11,393.41H395.3V109.12H832.11Zm-435.77-1H831.07V110.16H396.34Z" transform="translate(-52.48 -4.75)"/><rect class="cls-3" x="343.34" y="120.11" width="435.77" height="1.04"/><path class="cls-3" d="M406.71,121.57a4.15,4.15,0,1,1,4.15-4.15A4.15,4.15,0,0,1,406.71,121.57Zm0-7.26a3.11,3.11,0,1,0,3.12,3.11A3.11,3.11,0,0,0,406.71,114.31Z" transform="translate(-52.48 -4.75)"/><path class="cls-3" d="M419.16,121.57a4.15,4.15,0,1,1,4.15-4.15A4.15,4.15,0,0,1,419.16,121.57Zm0-7.26a3.11,3.11,0,1,0,3.12,3.11A3.11,3.11,0,0,0,419.16,114.31Z" transform="translate(-52.48 -4.75)"/><path class="cls-3" d="M431.61,121.57a4.15,4.15,0,1,1,4.15-4.15h0A4.15,4.15,0,0,1,431.61,121.57Zm0-7.26a3.11,3.11,0,1,0,3.12,3.11h0A3.12,3.12,0,0,0,431.61,114.31Z" transform="translate(-52.48 -4.75)"/><rect class="cls-3" x="479.63" y="120.63" width="1.04" height="267.92"/><rect class="cls-8" x="529.18" y="252.35" width="76.26" height="10.38"/><rect class="cls-8" x="649.01" y="252.35" width="76.26" height="10.38"/><path class="cls-3" d="M662.59,262.81h-77.3V251.39h77.3Zm-76.26-1h75.22v-9.34H586.33Z" transform="translate(-52.48 -4.75)"/><rect class="cls-8" x="529.18" y="332.76" width="76.26" height="10.38"/><path class="cls-3" d="M662.59,343.22h-77.3V331.8h77.3Zm-76.26-1h75.22v-9.34H586.33Z" transform="translate(-52.48 -4.75)"/><rect class="cls-8" x="529.44" y="291.52" width="196.1" height="10.38"/><path class="cls-3" d="M782.68,303H585.55V291.6H782.68Zm-196.09-1H781.65v-9.33H586.59Z" transform="translate(-52.48 -4.75)"/><path class="cls-3" d="M782.42,262.81H705.13V251.39h77.29Zm-76.26-1h75.23v-9.34H706.16Z" transform="translate(-52.48 -4.75)"/><path class="cls-3" d="M465.48,293.7A42.68,42.68,0,1,1,508.16,251,42.68,42.68,0,0,1,465.48,293.7Zm0-84.06A41.38,41.38,0,1,0,506.87,251,41.38,41.38,0,0,0,465.48,209.64Z" transform="translate(-52.48 -4.75)"/><path class="cls-10" d="M485.13,239.41q-1-.34-2-.63c.12-.45.22-.91.31-1.37,1.52-7.37.53-13.3-2.86-15.25s-8.56.08-13.93,4.74c-.53.47-1.05.94-1.55,1.43-.34-.33-.68-.64-1-1-5.63-5-11.26-7.09-14.65-5.13s-4.21,7.45-2.84,14.44c.13.69.29,1.38.46,2.06-.8.23-1.57.47-2.31.73-6.59,2.29-10.8,5.9-10.8,9.64s4.52,7.73,11.39,10.07c.55.19,1.12.37,1.68.53-.18.74-.34,1.48-.49,2.22-1.3,6.87-.28,12.31,3,14.18s9-.05,14.42-4.83c.43-.38.86-.78,1.3-1.2.55.53,1.11,1,1.68,1.54,5.3,4.55,10.53,6.39,13.76,4.52s4.42-7.79,3-14.91c-.11-.54-.24-1.1-.38-1.66l1.16-.36c7.14-2.37,11.79-6.19,11.79-10.1s-4.35-7.38-11.08-9.7Z" transform="translate(-52.48 -4.75)"/><path class="cls-1" d="M483.58,256.68l-1.05.33a61.77,61.77,0,0,0-3.15-7.89,61.71,61.71,0,0,0,3-7.78c.64.19,1.26.38,1.85.59,5.77,2,9.28,4.91,9.28,7.18S489.75,254.64,483.58,256.68ZM481,261.75a22.45,22.45,0,0,1,.3,8.22c-.37,2-1.11,3.33-2,3.87-2,1.13-6.16-.34-10.68-4.24-.52-.45-1-.92-1.57-1.43a61.85,61.85,0,0,0,5.22-6.63,61.68,61.68,0,0,0,8.44-1.3c.12.51.24,1,.33,1.5Zm-25.87,11.89c-1.92.68-3.44.7-4.37.17-2-1.14-2.78-5.52-1.66-11.38q.19-1,.45-2.07a62.5,62.5,0,0,0,8.4,1.22,65,65,0,0,0,5.34,6.6c-.38.38-.78.74-1.18,1.1a22.67,22.67,0,0,1-7,4.36Zm-9-17a22.63,22.63,0,0,1-7.27-3.86c-1.54-1.33-2.32-2.64-2.32-3.7,0-2.27,3.38-5.17,9-7.13.71-.25,1.42-.47,2.14-.68a63,63,0,0,0,3,7.87,63.16,63.16,0,0,0-3.07,8C447.19,257,446.68,256.84,446.17,256.67Zm3-20.5c-1.17-6-.39-10.5,1.56-11.63s6.69.51,11.55,4.83c.31.27.62.56.93.86a64.12,64.12,0,0,0-5.3,6.56,66.48,66.48,0,0,0-8.31,1.3c-.16-.64-.3-1.28-.43-1.92Zm26.87,6.63c-.61-1.05-1.24-2.09-1.89-3.11,2,.25,3.89.58,5.68,1a56.53,56.53,0,0,1-2,5.36c-.57-1.09-1.17-2.17-1.79-3.24Zm-11-10.67a57.32,57.32,0,0,1,3.67,4.42c-2.46-.11-4.91-.11-7.37,0,1.21-1.59,2.45-3.08,3.7-4.42Zm-11,10.69c-.62,1.06-1.2,2.13-1.76,3.22a56.59,56.59,0,0,1-2-5.39c1.78-.4,3.67-.72,5.65-1-.67,1-1.3,2.08-1.92,3.14Zm2,15.9q-2.89-.32-5.74-.92c.55-1.78,1.23-3.63,2-5.5.57,1.09,1.15,2.16,1.77,3.22s1.27,2.15,1.95,3.2Zm9.14,7.55a56,56,0,0,1-3.75-4.49c1.19.05,2.41.07,3.64.07s2.53,0,3.76-.08a56.16,56.16,0,0,1-3.66,4.5Zm12.69-14.07a54.24,54.24,0,0,1,2.1,5.48,57.3,57.3,0,0,1-5.81,1c.66-1,1.29-2.1,1.91-3.17S477.29,253.32,477.86,252.2Zm-4.11,2q-1.41,2.46-3,4.82c-1.85.14-3.76.2-5.71.2s-3.82-.06-5.64-.17c-1.07-1.57-2.09-3.18-3-4.83s-1.84-3.32-2.66-5q1.23-2.56,2.65-5h0c.94-1.64,1.95-3.25,3-4.81,1.85-.14,3.75-.22,5.67-.22s3.83.08,5.68.22q1.59,2.34,3,4.79t2.68,5q-1.24,2.56-2.67,5Zm5.49-29.71c2.09,1.2,2.9,6,1.59,12.42-.09.41-.18.82-.28,1.23a63.3,63.3,0,0,0-8.33-1.31,61.53,61.53,0,0,0-5.26-6.57c.46-.45.94-.89,1.43-1.32,4.6-4,8.9-5.58,10.85-4.45Z" transform="translate(-52.48 -4.75)"/><path class="cls-10" d="M465.06,243.54a5.57,5.57,0,1,1-5.56,5.57,5.56,5.56,0,0,1,5.56-5.57h0" transform="translate(-52.48 -4.75)"/><path class="cls-3" d="M325.13,356.38h24.06v23.77h22V356.38h24.07v72H371.2v-24.1h-22v24.1H325.13v-72Zm101.78,23.87H405.73V356.38h66.44v23.87H451v48.11H426.91V380.25Zm55.8-23.87H507.8l15.43,25.29,15.42-25.29h25.1v72h-24V392.68l-16.56,25.6h-.41l-16.57-25.6v35.68H482.71Zm93,0h24.07v48.19h33.84v23.79H575.72v-72Z" transform="translate(-52.48 -4.75)"/><polygon class="cls-3" points="783.18 350.81 783.18 425.09 725.27 425.09 725.27 400.54 759.11 400.54 759.11 350.81 783.18 350.81 783.18 350.81"/><polygon class="cls-3" points="786.2 350.92 844.48 350.15 844.76 371.34 810.86 371.79 810.91 376.03 844.82 375.58 845.47 424.32 787.19 425.09 786.89 402.84 820.8 402.39 820.74 398.15 786.84 398.6 786.21 350.92 786.2 350.92"/></svg>